HIERARCHY
ROOT Hips
{
	OFFSET 0.000000 0.000000 0.000000
	CHANNELS 6 Xposition Yposition Zposition Zrotation Yrotation Xrotation 
	JOINT LHipJoint
	{
		OFFSET 0.000000 0.000000 0.000000
		CHANNELS 3 Zrotation Yrotation Xrotation
		JOINT LeftUpLeg
		{
			OFFSET 8.178360 -10.767780 5.035740
			CHANNELS 3 Zrotation Yrotation Xrotation
			JOINT LeftLeg
			{
				OFFSET 14.688660 -40.356780 0.000000
				CHANNELS 3 Zrotation Yrotation Xrotation
				JOINT LeftFoot
				{
					OFFSET 15.373200 -42.237540 0.000000
					CHANNELS 3 Zrotation Yrotation Xrotation
					JOINT LeftToeBase
					{
						OFFSET 0.945840 -2.598660 13.935300
						CHANNELS 3 Zrotation Yrotation Xrotation
						End Site
						{
							OFFSET 0.000000 0.000000 0.000000
						}
					}
				}
			}
		}
	}
	JOINT RHipJoint
	{
		OFFSET 0.000000 0.000000 0.000000
		CHANNELS 3 Zrotation Yrotation Xrotation
		JOINT RightUpLeg
		{
			OFFSET -7.833120 -10.767780 5.035740
			CHANNELS 3 Zrotation Yrotation Xrotation
			JOINT RightLeg
			{
				OFFSET -15.255180 -41.913300 0.000000
				CHANNELS 3 Zrotation Yrotation Xrotation
				JOINT RightFoot
				{
					OFFSET -15.409560 -42.337380 0.000000
					CHANNELS 3 Zrotation Yrotation Xrotation
					JOINT RightToeBase
					{
						OFFSET -0.988380 -2.715540 14.178900
						CHANNELS 3 Zrotation Yrotation Xrotation
						End Site
						{
							OFFSET 0.000000 0.000000 0.000000
						}
					}
				}
			}
		}
	}
	JOINT LowerBack
	{
		OFFSET 0.000000 0.000000 0.000000
		CHANNELS 3 Zrotation Yrotation Xrotation
		JOINT Spine
		{
			OFFSET 0.169620 12.213540 -1.160280
			CHANNELS 3 Zrotation Yrotation Xrotation
			JOINT Spine1
			{
				OFFSET 0.340320 12.293100 -0.256500
				CHANNELS 3 Zrotation Yrotation Xrotation
				JOINT Neck
				{
					OFFSET 0.000000 0.000000 0.000000
					CHANNELS 3 Zrotation Yrotation Xrotation
					JOINT Neck1
					{
						OFFSET -0.325020 10.477440 1.032120
						CHANNELS 3 Zrotation Yrotation Xrotation
						JOINT Head
						{
							OFFSET 0.624420 10.568160 -0.743820
							CHANNELS 3 Zrotation Yrotation Xrotation
							End Site
							{
								OFFSET 0.000000 0.000000 0.000000
							}
						}
					}
				}
				JOINT LeftShoulder
				{
					OFFSET 0.000000 0.000000 0.000000
					CHANNELS 3 Zrotation Yrotation Xrotation
					JOINT LeftArm
					{
						OFFSET 20.174460 7.205340 -1.867260
						CHANNELS 3 Zrotation Yrotation Xrotation
						JOINT LeftForeArm
						{
							OFFSET 29.898000 -0.000000 -0.000000
							CHANNELS 3 Zrotation Yrotation Xrotation
							JOINT LeftHand
							{
								OFFSET 20.901360 -0.000000 -0.000000
								CHANNELS 3 Zrotation Yrotation Xrotation
								JOINT LeftFingerBase
								{
									OFFSET 0.000000 0.000000 0.000000
									CHANNELS 3 Zrotation Yrotation Xrotation
									JOINT LeftHandIndex1
									{
										OFFSET 4.291560 -0.000000 -0.000000
										CHANNELS 3 Zrotation Yrotation Xrotation
										End Site
										{
											OFFSET 0.000000 0.000000 0.000000
										}
									}
								}
								JOINT LThumb
								{
									OFFSET 0.000000 0.000000 0.000000
									CHANNELS 3 Zrotation Yrotation Xrotation
									End Site
									{
										OFFSET 0.000000 0.000000 0.000000
									}
								}
							}
						}
					}
				}
				JOINT RightShoulder
				{
					OFFSET 0.000000 0.000000 0.000000
					CHANNELS 3 Zrotation Yrotation Xrotation
					JOINT RightArm
					{
						OFFSET -18.819600 8.244300 -2.427900
						CHANNELS 3 Zrotation Yrotation Xrotation
						JOINT RightForeArm
						{
							OFFSET -31.451400 -0.000000 -0.000000
							CHANNELS 3 Zrotation Yrotation Xrotation
							JOINT RightHand
							{
								OFFSET -20.665020 -0.000000 -0.000000
								CHANNELS 3 Zrotation Yrotation Xrotation
								JOINT RightFingerBase
								{
									OFFSET 0.000000 0.000000 0.000000
									CHANNELS 3 Zrotation Yrotation Xrotation
									JOINT RightHandIndex1
									{
										OFFSET -3.735180 -0.000000 -0.000000
										CHANNELS 3 Zrotation Yrotation Xrotation
										End Site
										{
											OFFSET 0.000000 0.000000 0.000000
										}
									}
								}
								JOINT RThumb
								{
									OFFSET 0.000000 0.000000 0.000000
									CHANNELS 3 Zrotation Yrotation Xrotation
									End Site
									{
										OFFSET 0.000000 0.000000 0.000000
									}
								}
							}
						}
					}
				}
			}
		}
	}
}
MOTION
Frames:	5
Frame Time:	0.0333333
62.291034 107.689452 84.920172 9.286706 -62.711187 -4.077719 -3.403522 2.729759 4.158731 -18.253703 6.082701 6.687462 -1.778558 -0.030448 2.299795 -3.868102 22.475898 -2.496073 1.480600 -7.688000 -21.770500 0.078168 -1.119166 0.045386 16.544650 -2.022884 -32.816373 -1.514443 -9.363965 25.736773 4.049298 -20.049141 0.969503 -1.489600 -7.710300 21.837500 -4.623792 -1.788251 9.316912 1.478957 -2.718240 1.272513 3.307964 -1.602322 -4.255951 -13.938476 -10.810913 -13.425227 11.344246 -13.591811 16.725628 5.341900 -6.268500 13.745600 -6.386778 -0.625435 -1.452729 -75.140219 2.464021 18.709736 15.726460 -22.950900 -3.834870 -1.426934 -2.276459 4.272750 21.203581 22.714754 9.931500 -7.125000 0.000000 0.000000 -7.834300 56.629100 -2.242900 4.953347 1.852650 -0.896635 81.416943 -3.106326 13.526232 -20.316582 29.339454 -5.703476 0.422142 -0.101155 2.449430 -16.729462 9.044405 -2.798400 7.125000 0.000000 0.000000 7.007100 -20.485300 4.142400 
60.030222 108.063546 85.414554 10.357655 -65.181374 -4.849395 -3.354432 2.800090 4.154228 -18.199165 7.082189 7.557964 -1.724507 -0.041892 2.303563 -3.941837 23.104249 -1.262546 1.525700 -7.799100 -22.105500 0.044941 -1.129184 0.041105 17.187673 -1.316142 -32.203085 -1.581976 -9.431846 26.097193 3.249300 -17.207245 3.152843 -1.769100 -8.367500 23.836100 -4.912355 -1.793697 9.085169 1.471355 -2.747290 1.366627 3.434913 -1.636540 -3.958375 -13.377451 -10.457241 -14.073983 11.128135 -13.107438 16.663687 5.204400 -5.999000 13.693100 -6.340416 -0.686693 -1.459435 -75.750672 1.664677 16.921906 16.635212 -24.115136 -4.269975 -1.378166 -2.308696 2.841909 21.669585 22.626468 10.127800 -7.125000 0.000000 0.000000 -7.288500 56.639000 -2.087200 4.990630 1.832229 -0.906627 82.214880 -3.101463 10.959625 -19.222766 27.981811 -5.117211 0.426876 -0.127546 3.920981 -16.952952 9.053231 -2.846000 7.125000 0.000000 0.000000 6.840600 -20.447400 4.048400 
57.491550 108.167592 85.756776 11.405215 -67.297376 -5.559525 -3.275011 2.889253 4.137947 -17.885048 7.744253 8.574026 -1.645850 -0.035402 2.257438 -3.844822 23.673846 2.561311 2.211700 -9.293800 -26.718900 0.015614 -1.148317 0.048920 17.679962 -0.572215 -31.398499 -1.680506 -9.612706 26.818040 2.863860 -15.426485 2.698456 -1.640600 -8.073500 22.937600 -5.186365 -1.822518 8.587410 1.398608 -2.789249 1.466928 3.440471 -1.681902 -3.517533 -12.868488 -10.193833 -14.589762 11.078056 -12.763822 16.440781 5.122800 -5.782500 13.589300 -6.268727 -0.710611 -1.472977 -76.012137 1.276406 16.796243 17.807026 -25.632919 -4.884935 -1.287030 -2.406512 -0.045113 22.382476 22.869939 10.591700 -7.125000 0.000000 0.000000 -6.605600 57.082700 -1.961300 5.002137 1.799713 -0.921743 83.183389 -3.544778 8.850817 -18.388973 26.931792 -4.697471 0.403818 -0.128645 5.282411 -16.267289 8.563706 -2.577600 7.125000 0.000000 0.000000 7.355100 -20.997700 4.265800 
54.708090 108.516426 85.959462 11.112355 -69.222980 -5.167248 -3.335810 2.782320 4.067510 -16.971652 7.267143 6.306920 -1.223285 2.453577 8.723024 -3.898645 23.372756 3.186099 2.567000 -9.958700 -28.843100 0.090285 -1.148623 0.107047 18.652863 -0.107575 -29.856400 -1.618432 -9.467571 26.590067 2.698339 -14.443831 1.652495 -1.719900 -8.256500 23.495800 -5.103158 -1.932046 8.553614 1.529165 -2.938518 1.296316 3.736365 -1.733624 -3.800209 -12.916833 -10.055169 -14.815505 10.932237 -12.528440 16.605807 5.110700 -5.695800 13.680500 -6.186039 -0.692235 -1.511766 -76.308761 1.710773 18.001662 18.802505 -26.893811 -5.446859 -1.203110 -2.437287 -2.319972 22.896254 22.460949 10.684400 -7.125000 0.000000 0.000000 -5.864300 56.755200 -1.693600 5.008892 1.781600 -0.953775 83.715509 -4.766998 7.659208 -17.657627 25.981557 -4.339650 0.385599 -0.163271 5.894897 -15.794713 9.185470 -2.685700 7.125000 0.000000 0.000000 7.692000 -20.348800 4.578100 
51.711120 108.794292 86.093580 10.257446 -71.550254 -4.833640 -3.247844 2.746337 3.943677 -15.722734 7.849846 4.681970 -0.511221 4.653773 14.684438 -3.689103 22.635637 5.116684 2.424100 -9.698500 -28.005900 0.172746 -1.188655 0.188311 20.350468 -0.717725 -27.728405 -1.486630 -9.140622 25.827463 2.314211 -12.792571 2.139001 -1.563800 -7.891400 22.384700 -4.828596 -1.844134 8.742562 1.542791 -2.805284 1.325914 3.643594 -1.661907 -3.897497 -12.661558 -9.726062 -15.015998 10.756398 -12.132688 16.840910 5.066800 -5.519200 13.733600 -6.126342 -0.694186 -1.529909 -76.342026 1.921808 19.126322 19.605234 -27.880003 -5.919568 -1.139002 -2.398809 -2.985255 22.861474 21.766250 10.359000 -7.125000 0.000000 0.000000 -5.660200 55.970300 -1.526800 5.030072 1.754760 -0.974544 84.181146 -5.508578 7.479971 -16.697575 24.693606 -3.886945 0.381775 -0.184850 6.713884 -15.666571 9.206818 -2.674200 7.125000 0.000000 0.000000 7.782600 -20.316600 4.638700 
